<?xml version="1.0" encoding="UTF-8"?>
<svg id="Layer_1" xmlns="http://www.w3.org/2000/svg" xmlns:xlink="http://www.w3.org/1999/xlink" version="1.1" viewBox="0 0 511.9 511.9">
  <!-- Generator: Adobe Illustrator 30.1.0, SVG Export Plug-In . SVG Version: 2.1.1 Build 136)  -->
  <defs>
    <style>
      .st0 {
        filter: url(#drop-shadow-1);
      }

      .st1 {
        fill: #81d3eb;
      }

      .st2 {
        fill: #0c234b;
      }
    </style>
    <filter id="drop-shadow-1" x="107" y="75" width="312" height="375" filterUnits="userSpaceOnUse">
      <feOffset dx="7" dy="7"/>
      <feGaussianBlur result="blur" stdDeviation="5"/>
      <feFlood flood-color="#000" flood-opacity=".8"/>
      <feComposite in2="blur" operator="in"/>
      <feComposite in="SourceGraphic"/>
    </filter>
  </defs>
  <rect class="st2" width="511.9" height="511.9"/>
  <g class="st0">
    <path class="st1" d="M297,427.9c-.7,0-1.8,0-2.5-.4-15.9-6.4-32.2-12.4-48.1-18.7-15.9-6-31.8-12.4-47.7-18.7-10.3-3.9-20.2-7.8-30.4-12-15.9-6-32.2-12.4-48.1-18.7-1.1-.4-5.3-2.5-4.6-8.8,0,0,2.8-15.9,12.4-16.6,1.8,0,2.8-.7,3.5-1.8.7-1.1.7-2.8.4-3.9,0,0,0-.4-.4-.4-1.8.4-3.9.4-5.3-.7-2.1-1.1-3.2-3.2-3.2-5.3s-.4-3.2-.7-4.6c-.7-5.7-2.1-12,.7-19.1.7-2.1,1.8-3.9,2.8-5.7,1.1-2.5,2.5-4.6,2.8-6.7.7-2.5.7-5.7.7-8.8s0-3.9.4-6c1.1-11.3,7.4-15.2,11.7-17.7,2.1-1.4,3.5-2.5,4.6-3.9-.7-1.1-3.2-3.2-4.6-4.6-.4-.4-.7-.7-1.1-.7-12-10.6-14.5-26.9-15.9-42.8-.4-5.3-1.1-10.3-1.8-15.9-1.4-11.3-2.8-22.6-2.5-33.6v-2.8c0-2.8,0-6,2.5-8.8,2.1-2.5,4.6-3.2,8.5-4.6h0c6.7-2.1,12.4,1.1,16.6,3.2.4.4,1.1.7,1.4.7,0-.7.4-1.1.4-2.1.7-4.2.7-13.1.7-21.6,0-21.6.4-26.2,3.9-29,3.5-3.2,9.9-3.2,19.4-2.1,1.4,0,3.2.4,3.5.4h76.4c12.7,0,47,0,77.8-.4h56.6c1.8,0,3.9,0,6,2.1,1.4,1.4,2.1,3.2,2.1,4.9h0l.4,328.8c0,1.8-.7,3.5-2.1,4.9-1.4,1.4-3.2,2.1-4.9,2.1-9.5,0-83.8.4-92.3.4h0ZM131.2,349.1c14.1,5.7,28.6,11.3,42.8,16.6,10.3,3.9,20.2,7.8,30.4,12,15.9,6,31.8,12.4,47.7,18.7,15.6,6,31.1,12,46.7,18,10.6,0,64.3-.4,85.6-.4,0-233-.4-297.3-.4-315-12,0-44.5,0-128.7.4h-76.4c-1.1,0-2.8,0-4.9-.4-1.8,0-5.3-.4-7.8-.7-.4,4.6-.4,12.4-.4,18,0,9.2,0,18-.7,23.3-.4,2.8-1.1,7.8-4.9,11.7-5.7,5.7-12.7,2.1-17-.4-2.1-1.1-5.3-2.8-6.4-2.5h0c-.4,0-.7.4-1.1.4v3.2c-.4,10.3,1.1,20.9,2.5,31.8.7,5.3,1.4,11,1.8,16.3,1.1,13.8,2.8,26.5,11.3,33.6.4.4.7.7,1.1.7,4.2,3.9,12.4,11,8.5,20.2-2.5,5.7-6.7,8.5-9.9,10.3-3.5,2.1-4.9,3.2-5.3,7.4,0,1.8-.4,3.2-.4,4.9,0,3.9-.4,8.1-1.4,12.4-1.1,3.5-2.5,6.7-3.9,9.2-.7,1.8-1.8,3.2-2.1,4.6-1.4,3.2-.7,6.7,0,11.3.7.4,1.1.4,1.8.7,3.9,2.1,6.7,5.7,7.8,9.9,1.1,5.7.4,11-2.8,15.2-2.8,3.5-6.7,6-11.3,6.7-1.8,1.1-2.1,1.4-2.1,1.8h0ZM163,98.4h0ZM166.2,95.2,383.6,92.1h0ZM383.6,92.1h0Z"/>
    <g>
      <path class="st1" d="M265.5,170.5h6.7v97.9h-6.7v-97.9h0Z"/>
      <path class="st1" d="M285.7,268.1h-6.7v-97.6h6.7v97.6Z"/>
      <path class="st1" d="M265.5,286.2h6.7v97.9h-6.7v-97.9h0Z"/>
      <path class="st1" d="M285.7,383.7h-6.7v-97.6h6.7v97.6h0Z"/>
      <path class="st1" d="M318.2,161c-6.7,0-12.4-5.3-12.4-12s5.3-12.4,12.4-12.4,12.4,5.3,12.4,12.4c-.4,6.4-5.7,12-12.4,12h0Z"/>
      <path class="st1" d="M288.2,152.2v-7.1h14.8v7.1h-14.8Z"/>
      <path class="st1" d="M248.6,152.2v-7.1h14.8v7.1h-14.8Z"/>
      <path class="st1" d="M223.8,189.3h-35.4c-2.8,0-4.9-2.1-4.9-4.9h0c0-2.8,2.1-4.9,4.9-4.9h35.4c2.8,0,4.9,2.1,4.9,4.9h0c.4,2.8-2.1,4.9-4.9,4.9h0Z"/>
      <path class="st1" d="M223.8,201.3h-35.4c-2.8,0-4.9-2.1-4.9-4.9h0c0-2.8,2.1-4.9,4.9-4.9h35.4c2.8,0,4.9,2.1,4.9,4.9h0c.4,2.5-2.1,4.9-4.9,4.9h0Z"/>
      <path class="st1" d="M223.8,213h-35.4c-2.8,0-4.9-2.1-4.9-4.9h0c0-2.8,2.1-4.9,4.9-4.9h35.4c2.8,0,4.9,2.1,4.9,4.9h0c.4,2.8-2.1,4.9-4.9,4.9h0Z"/>
      <path class="st1" d="M223.8,225h-35.4c-2.8,0-4.9-2.1-4.9-4.9h0c0-2.8,2.1-4.9,4.9-4.9h35.4c2.8,0,4.9,2.1,4.9,4.9h0c.4,2.5-2.1,4.9-4.9,4.9h0Z"/>
      <path class="st1" d="M223.8,236.7h-35.4c-2.8,0-4.9-2.1-4.9-4.9h0c0-2.8,2.1-4.9,4.9-4.9h35.4c2.8,0,4.9,2.1,4.9,4.9h0c.4,2.8-2.1,4.9-4.9,4.9h0Z"/>
      <path class="st1" d="M223.8,248.7h-35.4c-2.8,0-4.9-2.1-4.9-4.9h0c0-2.8,2.1-4.9,4.9-4.9h35.4c2.8,0,4.9,2.1,4.9,4.9h0c.4,2.8-2.1,4.9-4.9,4.9h0Z"/>
      <path class="st1" d="M223.8,260.3h-35.4c-2.8,0-4.9-2.1-4.9-4.9h0c0-2.8,2.1-4.9,4.9-4.9h35.4c2.8,0,4.9,2.1,4.9,4.9h0c.4,2.8-2.1,4.9-4.9,4.9h0Z"/>
      <path class="st1" d="M340.1,243.7v29.3h-130.1v-9.9h-7.8v17.7h145.3v-37.1h-7.4Z"/>
      <path class="st1" d="M330.2,241.3h27.2v-43.1c-.7-4.2-3.9-7.4-8.5-7.8h-8.5c-6.7,0-10.3,3.5-10.3,10.3v21.2c0,.4,0,18,0,19.4h0Z"/>
      <path class="st1" d="M265.5,165.9h19.8v-31.8c-.4-3.2-2.8-5.7-6-5.7h-6c-4.9,0-7.4,2.8-7.4,7.4v15.6c-.4.4-.4,13.4-.4,14.5h0Z"/>
      <path class="st1" d="M233,136.2c7.1,0,12.4,5.7,12,12.4,0,6.7-5.3,12-12,12v-24.4h0Z"/>
    </g>
  </g>
</svg>