<?xml version="1.0" encoding="UTF-8"?>
<svg id="Layer_1" data-name="Layer 1" xmlns="http://www.w3.org/2000/svg" xmlns:xlink="http://www.w3.org/1999/xlink" viewBox="0 0 511.92 511.92">
  <defs>
    <filter id="drop-shadow-1" x="111" y="80" width="304" height="366" filterUnits="userSpaceOnUse">
      <feOffset dx="7" dy="7"/>
      <feGaussianBlur result="blur" stdDeviation="5"/>
      <feFlood flood-color="#000" flood-opacity=".75"/>
      <feComposite in2="blur" operator="in"/>
      <feComposite in="SourceGraphic"/>
    </filter>
  </defs>
  <rect width="511.92" height="511.92" style="fill: #0c234b;"/>
  <g style="filter: url(#drop-shadow-1);">
    <path d="M295.96,423.52c-.69,0-1.72,0-2.41-.34-15.5-6.2-31.35-12.06-46.85-18.26-15.5-5.86-31-12.06-46.51-18.26-9.99-3.79-19.64-7.58-29.63-11.71-15.5-5.86-31.35-12.06-46.85-18.26-1.03-.34-5.17-2.41-4.48-8.61,0,0,2.76-15.5,12.06-16.19,1.72,0,2.76-.69,3.44-1.72s.69-2.76.34-3.79c0,0,0-.34-.34-.34-1.72.34-3.79.34-5.17-.69-2.07-1.03-3.1-3.1-3.1-5.17,0-1.38-.34-3.1-.69-4.48-.69-5.51-2.07-11.71.69-18.6.69-2.07,1.72-3.79,2.76-5.51,1.03-2.41,2.41-4.48,2.76-6.55.69-2.41.69-5.51.69-8.61,0-2.07,0-3.79.34-5.86,1.03-11.02,7.23-14.81,11.37-17.22,2.07-1.38,3.44-2.41,4.48-3.79-.69-1.03-3.1-3.1-4.48-4.48-.34-.34-.69-.69-1.03-.69-11.71-10.33-14.12-26.18-15.5-41.68-.34-5.17-1.03-9.99-1.72-15.5-1.38-11.02-2.76-22.05-2.41-32.73v-2.76c0-2.76,0-5.86,2.41-8.61,2.07-2.41,4.48-3.1,8.27-4.48h0c6.55-2.07,12.06,1.03,16.19,3.1.34.34,1.03.69,1.38.69,0-.69.34-1.03.34-2.07.69-4.13.69-12.75.69-21.01,0-21.01.34-25.49,3.79-28.25,3.44-3.1,9.65-3.1,18.95-2.07,1.38,0,3.1.34,3.44.34h74.41c12.4,0,45.82,0,75.79-.34h55.12c1.72,0,3.79,0,5.86,2.07,1.38,1.38,2.07,3.1,2.07,4.82h0l.34,320.37c0,1.72-.69,3.44-2.07,4.82-1.38,1.38-3.1,2.07-4.82,2.07-9.3,0-81.64.34-89.91.34h0ZM134.39,346.7c13.78,5.51,27.9,11.02,41.68,16.19,9.99,3.79,19.64,7.58,29.63,11.71,15.5,5.86,31,12.06,46.51,18.26,15.16,5.86,30.31,11.71,45.47,17.57,10.33,0,62.7-.34,83.37-.34,0-227.02-.34-289.71-.34-306.94-11.71,0-43.41,0-125.39.34h-74.41c-1.03,0-2.76,0-4.82-.34-1.72,0-5.17-.34-7.58-.69-.34,4.48-.34,12.06-.34,17.57,0,8.96,0,17.57-.69,22.74-.34,2.76-1.03,7.58-4.82,11.37-5.51,5.51-12.4,2.07-16.54-.34-2.07-1.03-5.17-2.76-6.2-2.41h0c-.34,0-.69.34-1.03.34v3.1c-.34,9.99,1.03,20.32,2.41,31,.69,5.17,1.38,10.68,1.72,15.85,1.03,13.44,2.76,25.84,11.02,32.73.34.34.69.69,1.03.69,4.13,3.79,12.06,10.68,8.27,19.64-2.41,5.51-6.55,8.27-9.65,9.99-3.44,2.07-4.82,3.1-5.17,7.23,0,1.72-.34,3.1-.34,4.82,0,3.79-.34,7.92-1.38,12.06-1.03,3.44-2.41,6.55-3.79,8.96-.69,1.72-1.72,3.1-2.07,4.48-1.38,3.1-.69,6.55,0,11.02.69.34,1.03.34,1.72.69,3.79,2.07,6.55,5.51,7.58,9.65,1.03,5.51.34,10.68-2.76,14.81-2.76,3.44-6.55,5.86-11.02,6.55-1.72,1.03-2.07,1.38-2.07,1.72h0ZM165.4,102.46h0ZM168.5,99.36,380.36,96.25h0ZM380.36,96.25h0Z" style="fill: #81d3eb;"/>
    <g>
      <path d="M265.3,172.73h6.55v95.42h-6.55v-95.42h0Z" style="fill: #81d3eb;"/>
      <path d="M284.94,267.81h-6.55v-95.08h6.55v95.08Z" style="fill: #81d3eb;"/>
      <path d="M265.3,285.38h6.55v95.42h-6.55v-95.42h0Z" style="fill: #81d3eb;"/>
      <path d="M284.94,380.46h-6.55v-95.08h6.55v95.08h0Z" style="fill: #81d3eb;"/>
      <path d="M316.63,163.43c-6.55,0-12.06-5.17-12.06-11.71,0-6.89,5.17-12.06,12.06-12.06s12.06,5.17,12.06,12.06c-.34,6.2-5.51,11.71-12.06,11.71h0Z" style="fill: #81d3eb;"/>
      <path d="M287.35,154.82v-6.89h14.47v6.89h-14.47Z" style="fill: #81d3eb;"/>
      <path d="M248.76,154.82v-6.89h14.47v6.89h-14.47Z" style="fill: #81d3eb;"/>
      <path d="M224.65,190.99h-34.45c-2.76,0-4.82-2.07-4.82-4.82h0c0-2.76,2.07-4.82,4.82-4.82h34.45c2.76,0,4.82,2.07,4.82,4.82h0c.34,2.76-2.07,4.82-4.82,4.82h0Z" style="fill: #81d3eb;"/>
      <path d="M224.65,202.7h-34.45c-2.76,0-4.82-2.07-4.82-4.82h0c0-2.76,2.07-4.82,4.82-4.82h34.45c2.76,0,4.82,2.07,4.82,4.82h0c.34,2.41-2.07,4.82-4.82,4.82h0Z" style="fill: #81d3eb;"/>
      <path d="M224.65,214.07h-34.45c-2.76,0-4.82-2.07-4.82-4.82h0c0-2.76,2.07-4.82,4.82-4.82h34.45c2.76,0,4.82,2.07,4.82,4.82h0c.34,2.76-2.07,4.82-4.82,4.82h0Z" style="fill: #81d3eb;"/>
      <path d="M224.65,225.78h-34.45c-2.76,0-4.82-2.07-4.82-4.82h0c0-2.76,2.07-4.82,4.82-4.82h34.45c2.76,0,4.82,2.07,4.82,4.82h0c.34,2.41-2.07,4.82-4.82,4.82h0Z" style="fill: #81d3eb;"/>
      <path d="M224.65,237.15h-34.45c-2.76,0-4.82-2.07-4.82-4.82h0c0-2.76,2.07-4.82,4.82-4.82h34.45c2.76,0,4.82,2.07,4.82,4.82h0c.34,2.76-2.07,4.82-4.82,4.82h0Z" style="fill: #81d3eb;"/>
      <path d="M224.65,248.86h-34.45c-2.76,0-4.82-2.07-4.82-4.82h0c0-2.76,2.07-4.82,4.82-4.82h34.45c2.76,0,4.82,2.07,4.82,4.82h0c.34,2.76-2.07,4.82-4.82,4.82h0Z" style="fill: #81d3eb;"/>
      <path d="M224.65,260.23h-34.45c-2.76,0-4.82-2.07-4.82-4.82h0c0-2.76,2.07-4.82,4.82-4.82h34.45c2.76,0,4.82,2.07,4.82,4.82h0c.34,2.76-2.07,4.82-4.82,4.82h0Z" style="fill: #81d3eb;"/>
      <path d="M337.99,244.04v28.59h-126.77v-9.65h-7.58v17.22h141.58v-36.17h-7.23Z" style="fill: #81d3eb;"/>
      <path d="M328.34,241.63h26.53v-42.03c-.69-4.13-3.79-7.23-8.27-7.58h-8.27c-6.55,0-9.99,3.44-9.99,9.99v20.67c0,.34,0,17.57,0,18.95h0Z" style="fill: #81d3eb;"/>
      <path d="M265.3,168.25h19.29v-31c-.34-3.1-2.76-5.51-5.86-5.51h-5.86c-4.82,0-7.23,2.76-7.23,7.23v15.16c-.34.34-.34,13.09-.34,14.12h0Z" style="fill: #81d3eb;"/>
      <path d="M233.61,139.32c6.89,0,12.06,5.51,11.71,12.06,0,6.55-5.17,11.71-11.71,11.71v-23.77h0Z" style="fill: #81d3eb;"/>
    </g>
  </g>
</svg>