<?xml version="1.0" encoding="UTF-8"?>
<svg id="Layer_1" data-name="Layer 1" xmlns="http://www.w3.org/2000/svg" xmlns:xlink="http://www.w3.org/1999/xlink" viewBox="0 0 511.92 511.92">
  <defs>
    <filter id="drop-shadow-1" x="111.96" y="79.58" width="288" height="352.75" filterUnits="userSpaceOnUse">
      <feOffset dx="7" dy="7"/>
      <feGaussianBlur result="blur" stdDeviation="5"/>
      <feFlood flood-color="#000" flood-opacity=".75"/>
      <feComposite in2="blur" operator="in"/>
      <feComposite in="SourceGraphic"/>
    </filter>
  </defs>
  <rect width="511.92" height="511.92" style="fill: #fff;"/>
  <g style="filter: url(#drop-shadow-1);">
    <path d="M298.06,432.34c-.73,0-1.81,0-2.54-.36-16.32-6.53-33-12.69-49.32-19.22-16.32-6.16-32.64-12.69-48.95-19.22-10.52-3.99-20.67-7.98-31.19-12.33-16.32-6.16-33-12.69-49.32-19.22-1.09-.36-5.44-2.54-4.71-9.07,0,0,2.9-16.32,12.69-17.04,1.81,0,2.9-.73,3.63-1.81.73-1.09.73-2.9.36-3.99,0,0,0-.36-.36-.36-1.81.36-3.99.36-5.44-.73-2.18-1.09-3.26-3.26-3.26-5.44,0-1.45-.36-3.26-.73-4.71-.73-5.8-2.18-12.33.73-19.58.73-2.18,1.81-3.99,2.9-5.8,1.09-2.54,2.54-4.71,2.9-6.89.73-2.54.73-5.8.73-9.07,0-2.18,0-3.99.36-6.16,1.09-11.6,7.61-15.59,11.97-18.13,2.18-1.45,3.63-2.54,4.71-3.99-.73-1.09-3.26-3.26-4.71-4.71-.36-.36-.73-.73-1.09-.73-12.33-10.88-14.87-27.56-16.32-43.88-.36-5.44-1.09-10.52-1.81-16.32-1.45-11.6-2.9-23.21-2.54-34.45v-2.9c0-2.9,0-6.16,2.54-9.07,2.18-2.54,4.71-3.26,8.7-4.71h0c6.89-2.18,12.69,1.09,17.04,3.26.36.36,1.09.73,1.45.73,0-.73.36-1.09.36-2.18.73-4.35.73-13.42.73-22.12,0-22.12.36-26.83,3.99-29.73,3.63-3.26,10.15-3.26,19.94-2.18,1.45,0,3.26.36,3.63.36h78.33c13.05,0,48.23,0,79.78-.36h58.02c1.81,0,3.99,0,6.16,2.18,1.45,1.45,2.18,3.26,2.18,5.08h0l.36,337.23c0,1.81-.73,3.63-2.18,5.08-1.45,1.45-3.26,2.18-5.08,2.18-9.79,0-85.94.36-94.64.36h0ZM128,351.47c14.5,5.8,29.37,11.6,43.88,17.04,10.52,3.99,20.67,7.98,31.19,12.33,16.32,6.16,32.64,12.69,48.95,19.22,15.96,6.16,31.91,12.33,47.87,18.49,10.88,0,66-.36,87.75-.36,0-238.97-.36-304.96-.36-323.09-12.33,0-45.69,0-131.99.36h-78.33c-1.09,0-2.9,0-5.08-.36-1.81,0-5.44-.36-7.98-.73-.36,4.71-.36,12.69-.36,18.49,0,9.43,0,18.49-.73,23.93-.36,2.9-1.09,7.98-5.08,11.97-5.8,5.8-13.05,2.18-17.41-.36-2.18-1.09-5.44-2.9-6.53-2.54h0c-.36,0-.73.36-1.09.36v3.26c-.36,10.52,1.09,21.39,2.54,32.64.73,5.44,1.45,11.24,1.81,16.68,1.09,14.14,2.9,27.2,11.6,34.45.36.36.73.73,1.09.73,4.35,3.99,12.69,11.24,8.7,20.67-2.54,5.8-6.89,8.7-10.15,10.52-3.63,2.18-5.08,3.26-5.44,7.61,0,1.81-.36,3.26-.36,5.08,0,3.99-.36,8.34-1.45,12.69-1.09,3.63-2.54,6.89-3.99,9.43-.73,1.81-1.81,3.26-2.18,4.71-1.45,3.26-.73,6.89,0,11.6.73.36,1.09.36,1.81.73,3.99,2.18,6.89,5.8,7.98,10.15,1.09,5.8.36,11.24-2.9,15.59-2.9,3.63-6.89,6.16-11.6,6.89-1.81,1.09-2.18,1.45-2.18,1.81h0ZM160.63,94.38h0ZM163.9,91.11,386.91,87.85h0ZM386.91,87.85h0Z" style="fill: #0c234b;"/>
    <g>
      <path d="M265.79,168.35h6.89v100.45h-6.89v-100.45h0Z" style="fill: #0c234b;"/>
      <path d="M286.46,268.43h-6.89v-100.08h6.89v100.08Z" style="fill: #0c234b;"/>
      <path d="M265.79,286.93h6.89v100.45h-6.89v-100.45h0Z" style="fill: #0c234b;"/>
      <path d="M286.46,387.01h-6.89v-100.08h6.89v100.08h0Z" style="fill: #0c234b;"/>
      <path d="M319.82,158.56c-6.89,0-12.69-5.44-12.69-12.33,0-7.25,5.44-12.69,12.69-12.69s12.69,5.44,12.69,12.69c-.36,6.53-5.8,12.33-12.69,12.33h0Z" style="fill: #0c234b;"/>
      <path d="M289,149.49v-7.25h15.23v7.25h-15.23Z" style="fill: #0c234b;"/>
      <path d="M248.39,149.49v-7.25h15.23v7.25h-15.23Z" style="fill: #0c234b;"/>
      <path d="M223,187.57h-36.26c-2.9,0-5.08-2.18-5.08-5.08h0c0-2.9,2.18-5.08,5.08-5.08h36.26c2.9,0,5.08,2.18,5.08,5.08h0c.36,2.9-2.18,5.08-5.08,5.08h0Z" style="fill: #0c234b;"/>
      <path d="M223,199.9h-36.26c-2.9,0-5.08-2.18-5.08-5.08h0c0-2.9,2.18-5.08,5.08-5.08h36.26c2.9,0,5.08,2.18,5.08,5.08h0c.36,2.54-2.18,5.08-5.08,5.08h0Z" style="fill: #0c234b;"/>
      <path d="M223,211.86h-36.26c-2.9,0-5.08-2.18-5.08-5.08h0c0-2.9,2.18-5.08,5.08-5.08h36.26c2.9,0,5.08,2.18,5.08,5.08h0c.36,2.9-2.18,5.08-5.08,5.08h0Z" style="fill: #0c234b;"/>
      <path d="M223,224.19h-36.26c-2.9,0-5.08-2.18-5.08-5.08h0c0-2.9,2.18-5.08,5.08-5.08h36.26c2.9,0,5.08,2.18,5.08,5.08h0c.36,2.54-2.18,5.08-5.08,5.08h0Z" style="fill: #0c234b;"/>
      <path d="M223,236.16h-36.26c-2.9,0-5.08-2.18-5.08-5.08h0c0-2.9,2.18-5.08,5.08-5.08h36.26c2.9,0,5.08,2.18,5.08,5.08h0c.36,2.9-2.18,5.08-5.08,5.08h0Z" style="fill: #0c234b;"/>
      <path d="M223,248.49h-36.26c-2.9,0-5.08-2.18-5.08-5.08h0c0-2.9,2.18-5.08,5.08-5.08h36.26c2.9,0,5.08,2.18,5.08,5.08h0c.36,2.9-2.18,5.08-5.08,5.08h0Z" style="fill: #0c234b;"/>
      <path d="M223,260.46h-36.26c-2.9,0-5.08-2.18-5.08-5.08h0c0-2.9,2.18-5.08,5.08-5.08h36.26c2.9,0,5.08,2.18,5.08,5.08h0c.36,2.9-2.18,5.08-5.08,5.08h0Z" style="fill: #0c234b;"/>
      <path d="M342.3,243.41v30.1h-133.44v-10.15h-7.98v18.13h149.04v-38.07h-7.62Z" style="fill: #0c234b;"/>
      <path d="M332.15,240.87h27.92v-44.24c-.73-4.35-3.99-7.61-8.7-7.98h-8.7c-6.89,0-10.52,3.63-10.52,10.52v21.76c0,.36,0,18.49,0,19.94h0Z" style="fill: #0c234b;"/>
      <path d="M265.79,163.64h20.31v-32.64c-.36-3.26-2.9-5.8-6.16-5.8h-6.16c-5.08,0-7.61,2.9-7.61,7.61v15.96c-.36.36-.36,13.78-.36,14.87h0Z" style="fill: #0c234b;"/>
      <path d="M232.43,133.18c7.25,0,12.69,5.8,12.33,12.69,0,6.89-5.44,12.33-12.33,12.33v-25.02h0Z" style="fill: #0c234b;"/>
    </g>
  </g>
</svg>