<?xml version="1.0" encoding="UTF-8"?>
<svg id="Layer_1" data-name="Layer 1" xmlns="http://www.w3.org/2000/svg" xmlns:xlink="http://www.w3.org/1999/xlink" viewBox="0 0 511.92 511.92">
  <defs>
    <filter id="drop-shadow-1" x="109" y="75.96" width="293.92" height="360" filterUnits="userSpaceOnUse">
      <feOffset dx="7" dy="7"/>
      <feGaussianBlur result="blur" stdDeviation="5"/>
      <feFlood flood-color="#000" flood-opacity=".75"/>
      <feComposite in2="blur" operator="in"/>
      <feComposite in="SourceGraphic"/>
    </filter>
  </defs>
  <rect width="511.92" height="511.92" style="fill: #fff;"/>
  <g style="filter: url(#drop-shadow-1);">
    <path d="M298.93,435.96c-.74,0-1.85,0-2.59-.37-16.65-6.66-33.68-12.95-50.33-19.61-16.65-6.29-33.31-12.95-49.96-19.61-10.73-4.07-21.09-8.14-31.83-12.58-16.65-6.29-33.68-12.95-50.33-19.61-1.11-.37-5.55-2.59-4.81-9.25,0,0,2.96-16.65,12.95-17.39,1.85,0,2.96-.74,3.7-1.85.74-1.11.74-2.96.37-4.07,0,0,0-.37-.37-.37-1.85.37-4.07.37-5.55-.74-2.22-1.11-3.33-3.33-3.33-5.55,0-1.48-.37-3.33-.74-4.81-.74-5.92-2.22-12.58.74-19.98.74-2.22,1.85-4.07,2.96-5.92,1.11-2.59,2.59-4.81,2.96-7.03.74-2.59.74-5.92.74-9.25,0-2.22,0-4.07.37-6.29,1.11-11.84,7.77-15.91,12.21-18.5,2.22-1.48,3.7-2.59,4.81-4.07-.74-1.11-3.33-3.33-4.81-4.81-.37-.37-.74-.74-1.11-.74-12.58-11.1-15.17-28.13-16.65-44.78-.37-5.55-1.11-10.73-1.85-16.65-1.48-11.84-2.96-23.68-2.59-35.16v-2.96c0-2.96,0-6.29,2.59-9.25,2.22-2.59,4.81-3.33,8.88-4.81h0c7.03-2.22,12.95,1.11,17.39,3.33.37.37,1.11.74,1.48.74,0-.74.37-1.11.37-2.22.74-4.44.74-13.69.74-22.57,0-22.57.37-27.39,4.07-30.35,3.7-3.33,10.36-3.33,20.35-2.22,1.48,0,3.33.37,3.7.37h79.93c13.32,0,49.22,0,81.41-.37h59.21c1.85,0,4.07,0,6.29,2.22,1.48,1.48,2.22,3.33,2.22,5.18h0l.37,344.16c0,1.85-.74,3.7-2.22,5.18-1.48,1.48-3.33,2.22-5.18,2.22-9.99,0-87.71.37-96.59.37h0ZM125.37,353.43c14.8,5.92,29.98,11.84,44.78,17.39,10.73,4.07,21.09,8.14,31.83,12.58,16.65,6.29,33.31,12.95,49.96,19.61,16.28,6.29,32.57,12.58,48.85,18.87,11.1,0,67.35-.37,89.56-.37,0-243.87-.37-311.23-.37-329.73-12.58,0-46.63,0-134.7.37h-79.93c-1.11,0-2.96,0-5.18-.37-1.85,0-5.55-.37-8.14-.74-.37,4.81-.37,12.95-.37,18.87,0,9.62,0,18.87-.74,24.42-.37,2.96-1.11,8.14-5.18,12.21-5.92,5.92-13.32,2.22-17.76-.37-2.22-1.11-5.55-2.96-6.66-2.59h0c-.37,0-.74.37-1.11.37v3.33c-.37,10.73,1.11,21.83,2.59,33.31.74,5.55,1.48,11.47,1.85,17.02,1.11,14.43,2.96,27.76,11.84,35.16.37.37.74.74,1.11.74,4.44,4.07,12.95,11.47,8.88,21.09-2.59,5.92-7.03,8.88-10.36,10.73-3.7,2.22-5.18,3.33-5.55,7.77,0,1.85-.37,3.33-.37,5.18,0,4.07-.37,8.51-1.48,12.95-1.11,3.7-2.59,7.03-4.07,9.62-.74,1.85-1.85,3.33-2.22,4.81-1.48,3.33-.74,7.03,0,11.84.74.37,1.11.37,1.85.74,4.07,2.22,7.03,5.92,8.14,10.36,1.11,5.92.37,11.47-2.96,15.91-2.96,3.7-7.03,6.29-11.84,7.03-1.85,1.11-2.22,1.48-2.22,1.85h0ZM158.67,91.06h0ZM162,87.73,389.6,84.4h0ZM389.6,84.4h0Z" style="fill: #0c234b;"/>
    <g>
      <path d="M265.99,166.55h7.03v102.51h-7.03v-102.51h0Z" style="fill: #0c234b;"/>
      <path d="M287.09,268.69h-7.03v-102.14h7.03v102.14Z" style="fill: #0c234b;"/>
      <path d="M265.99,287.56h7.03v102.51h-7.03v-102.51h0Z" style="fill: #0c234b;"/>
      <path d="M287.09,389.7h-7.03v-102.14h7.03v102.14h0Z" style="fill: #0c234b;"/>
      <path d="M321.13,156.56c-7.03,0-12.95-5.55-12.95-12.58,0-7.4,5.55-12.95,12.95-12.95s12.95,5.55,12.95,12.95c-.37,6.66-5.92,12.58-12.95,12.58h0Z" style="fill: #0c234b;"/>
      <path d="M289.68,147.31v-7.4h15.54v7.4h-15.54Z" style="fill: #0c234b;"/>
      <path d="M248.23,147.31v-7.4h15.54v7.4h-15.54Z" style="fill: #0c234b;"/>
      <path d="M222.33,186.16h-37.01c-2.96,0-5.18-2.22-5.18-5.18h0c0-2.96,2.22-5.18,5.18-5.18h37.01c2.96,0,5.18,2.22,5.18,5.18h0c.37,2.96-2.22,5.18-5.18,5.18h0Z" style="fill: #0c234b;"/>
      <path d="M222.33,198.75h-37.01c-2.96,0-5.18-2.22-5.18-5.18h0c0-2.96,2.22-5.18,5.18-5.18h37.01c2.96,0,5.18,2.22,5.18,5.18h0c.37,2.59-2.22,5.18-5.18,5.18h0Z" style="fill: #0c234b;"/>
      <path d="M222.33,210.96h-37.01c-2.96,0-5.18-2.22-5.18-5.18h0c0-2.96,2.22-5.18,5.18-5.18h37.01c2.96,0,5.18,2.22,5.18,5.18h0c.37,2.96-2.22,5.18-5.18,5.18h0Z" style="fill: #0c234b;"/>
      <path d="M222.33,223.54h-37.01c-2.96,0-5.18-2.22-5.18-5.18h0c0-2.96,2.22-5.18,5.18-5.18h37.01c2.96,0,5.18,2.22,5.18,5.18h0c.37,2.59-2.22,5.18-5.18,5.18h0Z" style="fill: #0c234b;"/>
      <path d="M222.33,235.75h-37.01c-2.96,0-5.18-2.22-5.18-5.18h0c0-2.96,2.22-5.18,5.18-5.18h37.01c2.96,0,5.18,2.22,5.18,5.18h0c.37,2.96-2.22,5.18-5.18,5.18h0Z" style="fill: #0c234b;"/>
      <path d="M222.33,248.34h-37.01c-2.96,0-5.18-2.22-5.18-5.18h0c0-2.96,2.22-5.18,5.18-5.18h37.01c2.96,0,5.18,2.22,5.18,5.18h0c.37,2.96-2.22,5.18-5.18,5.18h0Z" style="fill: #0c234b;"/>
      <path d="M222.33,260.55h-37.01c-2.96,0-5.18-2.22-5.18-5.18h0c0-2.96,2.22-5.18,5.18-5.18h37.01c2.96,0,5.18,2.22,5.18,5.18h0c.37,2.96-2.22,5.18-5.18,5.18h0Z" style="fill: #0c234b;"/>
      <path d="M344.08,243.15v30.72h-136.19v-10.36h-8.14v18.5h152.1v-38.86h-7.77Z" style="fill: #0c234b;"/>
      <path d="M333.72,240.56h28.5v-45.15c-.74-4.44-4.07-7.77-8.88-8.14h-8.88c-7.03,0-10.73,3.7-10.73,10.73v22.2c0,.37,0,18.87,0,20.35h0Z" style="fill: #0c234b;"/>
      <path d="M265.99,161.74h20.72v-33.31c-.37-3.33-2.96-5.92-6.29-5.92h-6.29c-5.18,0-7.77,2.96-7.77,7.77v16.28c-.37.37-.37,14.06-.37,15.17h0Z" style="fill: #0c234b;"/>
      <path d="M231.95,130.65c7.4,0,12.95,5.92,12.58,12.95,0,7.03-5.55,12.58-12.58,12.58v-25.53h0Z" style="fill: #0c234b;"/>
    </g>
  </g>
</svg>